<?xml version="1.0" encoding="UTF-8"?>
<svg height="16px" viewBox="0 0 16 16" width="16px" xmlns="http://www.w3.org/2000/svg">
    <path d="M11.875.004a1 1 0 0 1 .913 1.079l-.226 2.709H15a1 1 0 0 1 0 2h-2.604l-.369 4.416H15a1 1 0 0 1 0 2h-3.14l-.239 2.875a1 1 0 1 1-1.992-.166l.225-2.71h-4.41l-.239 2.876a1 1 0 0 1-1.993-.166l.225-2.71H1a1 1 0 1 1 0-2h2.604l.369-4.415H1a1 1 0 0 1 0-2h3.14L4.379.917a1 1 0 1 1 1.992.166l-.225 2.709h4.41l.239-2.875a1 1 0 0 1 1.08-.913M5.611 10.208h4.41l.368-4.416h-4.41z" fill="#2e3436" fill-rule="evenodd" clip-rule="evenodd"/>
</svg>
