<?xml version="1.0" encoding="UTF-8"?>
<svg height="16px" viewBox="0 0 16 16" width="16px" xmlns="http://www.w3.org/2000/svg">
    <path d="M3 2C1.338 2 0 3.338 0 5v8c0 1.662 1.338 3 3 3h8c1.662 0 3-1.338 3-3V9a1 1 0 0 0-2 0v4c0 .554-.446 1-1 1H3c-.554 0-1-.446-1-1V5c0-.554.446-1 1-1h4a1 1 0 1 0 0-2H3Zm7-2a1 1 0 1 0 0 2h2.584L7.293 7.291a1 1 0 1 0 1.414 1.416L14 3.414V6a1 1 0 1 0 2 0V1a.994.994 0 0 0-.135-.5.984.984 0 0 0-.158-.207.819.819 0 0 0-.047-.035.956.956 0 0 0-.182-.129.957.957 0 0 0-.115-.049.963.963 0 0 0-.278-.067c-.029-.01-.057-.01-.086-.012L10 0Z" fill="#2e3436"/>
</svg>
