<?xml version="1.0" encoding="UTF-8"?>
<svg height="16px" viewBox="0 0 16 16" width="16px" xmlns="http://www.w3.org/2000/svg">
    <path d="M12 0c1.205 0 2 .738 2 2v2.037a2.33 2.33 0 0 1-.785 1.755l-2.488 2.172v.072l2.488 2.172A2.33 2.33 0 0 1 14 11.963V14c0 1.262-.795 2-2 2H4c-1.205 0-2-.738-2-2v-2.037c0-.678.288-1.32.785-1.755l2.487-2.172v-.072L2.785 5.792A2.33 2.33 0 0 1 2 4.037V2c0-1.262.795-2 2-2h8ZM4 4.036l3 2.857v2.214l-3 2.857V14h1l3-2.786L11 14h1v-2.036L9 9.107V6.893l3-2.857V2H4v2.036Z" fill="#2e3436" fill-rule="evenodd" clip-rule="evenodd"/>
</svg>
