<?xml version="1.0" encoding="UTF-8"?>
<svg height="16px" viewBox="0 0 16 16" width="16px" xmlns="http://www.w3.org/2000/svg">
    <path d="M8.001 11a1 1 0 1 1 0 2 1 1 0 0 1 0-2ZM6.852 3.227a3.002 3.002 0 0 1 3.27.65 3.007 3.007 0 0 1 .65 3.27A2.998 2.998 0 0 1 9.002 8.82V10H7v-2a1 1 0 0 1 1.001-1c.407 0 .768-.24.924-.617a.995.995 0 0 0-.217-1.09.996.996 0 0 0-1.09-.217A.994.994 0 0 0 7 6H5c0-1.21.733-2.309 1.852-2.772Z" fill="#2e3436"/>
    <path d="M7.996.02c4.41 0 8 3.59 8 8s-3.59 8-8 8-8-3.59-8-8 3.59-8 8-8Zm0 2c-3.332 0-6 2.667-6 6 0 3.332 2.668 6 6 6s6-2.668 6-6-2.668-6-6-6Z" fill="#2e3436" fill-rule="evenodd" clip-rule="evenodd"/>
</svg>
