<?xml version="1.0" encoding="UTF-8"?>
<svg height="16px" viewBox="0 0 16 16" width="16px" xmlns="http://www.w3.org/2000/svg">
    <path d="M2.86 9.78C1.19 9.235 0 7.74 0 6c0-2.199 1.921-4 4.267-4h3.2c2.345 0 4.266 1.801 4.266 4 0 1.642-1.06 3.069-2.585 3.68L8.31 7.84C9.07 7.536 9.6 6.84 9.6 6c0-1.125-.933-2-2.133-2h-3.2c-1.2 0-2.134.875-2.134 2 0 .89.596 1.62 1.427 1.89l-.7 1.89Z" fill="#2e3436"/>
    <path d="M8.533 14c-2.345 0-4.266-1.801-4.266-4 0-1.62 1.03-3.03 2.523-3.654l.87 1.828C6.918 8.484 6.4 9.17 6.4 10c0 1.125.933 2 2.133 2h3.2c1.2 0 2.134-.875 2.134-2 0-.868-.567-1.58-1.365-1.867l.763-1.867C14.869 6.842 16 8.305 16 10c0 2.199-1.921 4-4.267 4h-3.2Z" fill="#2e3436"/>
</svg>
