<?xml version="1.0" encoding="UTF-8" standalone="no"?>
<svg
    xmlns="http://www.w3.org/2000/svg"
    viewBox="0 0 16 16"
    fill="none"
    version="1.0"
    height="16"
    width="16">
    <title>Lenspect Symbolic Icon</title>
    <path d="M9 15H8V1H9V15ZM11.25 10.5V13.5H10.25V11.5H9.75V11L10.25 10.5H11.25Z" fill="#bebebe"/>
    <path d="M15.25 13.5H12.25V10.5H15.25V13.5ZM13.25 12.5H14.25V11.5H13.25V12.5ZM13.25 9.5H10.25V6.5H13.25V9.5ZM11.25 8.5H12.25V7.5H11.25V8.5Z" fill="#bebebe" fill-rule="evenodd" clip-rule="evenodd"/>
    <path d="M15.25 6.5V9.5H14.25V7.5H13.75V7L14.25 6.5H15.25ZM11.25 2.5V5.5H10.25V3.5H9.75V3L10.25 2.5H11.25Z" fill="#bebebe"/>
    <path d="M15.25 5.5H12.25V2.5H15.25V5.5ZM13.25 4.5H14.25V3.5H13.25V4.5Z" fill="#bebebe" fill-rule="evenodd" clip-rule="evenodd"/>
    <path d="M6 1H7V15H6V1Z" fill="#bebebe" fill-opacity="0.35"/>
    <path d="M4.41727 2.59289C4.65542 2.42223 4.97157 2.49309 5.13295 2.75325L5.75237 3.75227H6V4.89861H5.99791C5.74381 4.89861 5.57905 4.89861 5.45312 4.90782C5.33202 4.9167 5.28503 4.93245 5.2627 4.94235C5.13208 5.00055 5.02804 5.11265 4.97391 5.2531C4.96472 5.2771 4.95078 5.32721 4.94252 5.4572C4.93391 5.59302 4.93345 5.77098 4.93345 6.04572V6.61966H6V7.766H4.98856C4.71483 7.76633 4.5268 7.76861 4.3803 7.78288C4.22082 7.79844 4.16249 7.8247 4.13337 7.84273C4.0525 7.89301 3.98482 7.9653 3.93806 8.0522C3.92129 8.08348 3.89674 8.14677 3.88225 8.31845C3.86711 8.49835 3.86621 8.73603 3.86621 9.10339V10.0594C3.86621 10.6188 3.86956 10.8158 3.8976 10.9679L3.90039 10.9848C4.03139 11.6593 4.29901 12.1852 4.92857 12.3199C5.07014 12.3502 5.479 12.3537 6 12.3537V13.5C5.62176 13.4997 5.18269 13.4961 4.94601 13.4455C4.28832 13.3048 3.71973 12.9072 3.33329 12.3537C2.93703 12.3537 2.59088 12.5858 2.40695 12.9307C2.25577 13.214 2.02756 13.5 1.73312 13.5C1.43863 13.4999 1.19269 13.2266 1.27134 12.9084C1.4745 12.088 2.09061 11.4484 2.86523 11.2618L2.85128 11.1927C2.8361 11.1106 2.8254 11.0241 2.8178 10.9319L2.80315 10.6326H1.5113C1.22899 10.6326 1.00009 10.376 1 10.0594C1.00012 9.74295 1.22901 9.48627 1.5113 9.48627H2.80036V8.84098C1.88038 8.58647 1.20049 7.68818 1.2002 6.61966C1.20023 6.30289 1.42898 6.04572 1.7115 6.04572C1.99401 6.04572 2.2667 6.30289 2.26674 6.61966C2.26701 7.09756 2.5392 7.50726 2.92592 7.67929C2.94996 7.61171 2.97928 7.54464 3.01451 7.47903C3.15489 7.21775 3.35671 7.00004 3.59975 6.84908C3.68654 6.79523 3.7759 6.7546 3.86621 6.72401V6.04572C3.86621 5.78661 3.86641 5.5628 3.87807 5.37894C3.89007 5.19009 3.91647 5.00082 3.98828 4.81421L3.99595 4.79503C4.12675 4.46714 4.34856 4.19192 4.62793 4.00701L4.26869 3.42694C4.09832 3.15206 4.16577 2.77326 4.41727 2.59289Z" fill="#bebebe"/>
</svg>
