<?xml version="1.0" encoding="UTF-8" standalone="no"?>
<svg
    xmlns="http://www.w3.org/2000/svg"
    viewBox="0 0 128 128"
    fill="none"
    version="1.0"
    height="128"
    width="128">
    <title>Lenspect Scalable Icon</title>
    <path d="M110 14H18C14.6863 14 12 16.6863 12 20V110C12 113.314 14.6863 116 18 116H110C113.314 116 116 113.314 116 110V20C116 16.6863 113.314 14 110 14Z" fill="url(#a)"/>
    <path d="M108 12H20C15.5817 12 12 15.5817 12 20V100C12 104.418 15.5817 108 20 108H108C112.418 108 116 104.418 116 100V20C116 15.5817 112.418 12 108 12Z" fill="#dcdcdc"/>
    <path d="M104 20H24C21.7909 20 20 21.7909 20 24V96C20 98.2091 21.7909 100 24 100H104C106.209 100 108 98.2091 108 96V24C108 21.7909 106.209 20 104 20Z" fill="url(#b)"/>
    <path d="M104 19C106.761 19 109 21.2386 109 24V96C109 98.7614 106.761 101 104 101H24C21.2386 101 19 98.7614 19 96V24C19 21.2386 21.2386 19 24 19H104Z" stroke="url(#c)" stroke-linecap="square" stroke-linejoin="round" stroke-miterlimit="16" stroke-width="2" stroke-opacity="0.42"/>
    <mask id="d" height="80" width="88" x="20" y="20" style="mask-type:luminance" maskUnits="userSpaceOnUse">
        <path d="M103.8 20H24.2C21.8804 20 20 21.8804 20 24.2V95.8C20 98.1196 21.8804 100 24.2 100H103.8C106.12 100 108 98.1196 108 95.8V24.2C108 21.8804 106.12 20 103.8 20Z" fill="#ffffff"/>
    </mask>
    <g mask="url(#d)">
        <g fill="#000000" opacity="0.2">
            <path d="M73 70V76H71V72H70V71L71 70H73ZM65 61V67H63V63H62V62L63 61H65Z"/>
            <path d="M75 67H69V61H75V67ZM71 65H73V63H71V65Z" fill-rule="evenodd" clip-rule="evenodd"/>
            <path d="M82 61V67H80V63H79V62L80 61H82ZM57 52V58H55V54H54V53L55 52H57Z"/>
            <path d="M67 58H61V52H67V58ZM63 56H65V54H63V56Z" fill-rule="evenodd" clip-rule="evenodd"/>
            <path d="M74 52V58H72V54H71V53L72 52H74Z"/>
            <path d="M67 49H61V43H67V49ZM63 47H65V45H63V47Z" fill-rule="evenodd" clip-rule="evenodd"/>
        </g>
        <g filter="url(#e)" opacity="0.2">
            <path d="M90.6372 71.1075C90.8954 70.2889 91.7623 69.8197 92.571 70.0653C93.3803 70.3088 93.8258 71.1717 93.5651 71.9921L92.468 75.4642C93.9908 76.0344 95.1323 76.8083 95.8768 77.7764C95.9108 77.7864 95.9488 77.7904 95.9836 77.8017C96.6387 78.0187 97.5163 78.407 98.507 79.0435L99.3533 76.1698L102.574 74.2731C103.313 73.8378 104.252 74.082 104.668 74.8181C105.085 75.5555 104.823 76.5051 104.083 76.9405L101.945 78.1997L101.075 81.1493C101.874 81.9553 102.695 82.9446 103.504 84.1466L107.693 82.8981L112.237 85.4662C112.969 85.8808 113.218 86.8232 112.792 87.5721C112.649 87.8215 112.449 88.0183 112.218 88.154C111.759 88.4245 111.179 88.4529 110.688 88.1764L107.262 86.2389L105.056 86.8967C105.464 87.9401 105.967 89.6974 106.008 92.0689L108.999 91.8558L112.204 94.7149C112.833 95.2743 112.881 96.2529 112.311 96.8996C112.198 97.0282 112.067 97.135 111.926 97.2178C111.365 97.5483 110.643 97.5028 110.139 97.0534L107.878 95.038L105.798 95.1849C105.674 96.0206 105.495 96.9022 105.239 97.8319L104.961 98.843C104.436 100.749 103.211 102.35 101.509 103.352C99.8096 104.352 97.8381 104.635 95.9588 104.145L94.9599 103.885C94.0155 103.639 93.1563 103.348 92.3688 103.029L90.7698 105.171L91.3403 108.124C91.4711 108.793 91.1478 109.455 90.5866 109.786C90.4473 109.868 90.2906 109.93 90.1249 109.965C89.291 110.145 88.4832 109.614 88.3227 108.779L87.4879 104.464L89.604 101.632C87.5708 100.372 86.3341 99.0098 85.6829 98.1433L83.5983 100.175L83.5306 104.17C83.5202 104.742 83.2049 105.239 82.7454 105.51C82.5151 105.646 82.2498 105.726 81.966 105.726C81.1158 105.729 80.4406 105.038 80.4548 104.184L80.5464 98.8858L84.1402 95.3805C83.5634 94.1342 83.1648 92.9796 82.8885 91.9171L79.4988 91.4179L77.2931 92.718C76.5537 93.1535 75.6155 92.9105 75.198 92.1731C74.7814 91.437 75.0436 90.4862 75.7829 90.0507L78.935 88.1939L82.3753 88.6999C82.3121 87.4304 82.4327 86.4155 82.5813 85.6968C82.5894 85.6511 82.6091 85.6071 82.6214 85.5625C82.1559 84.3519 82.0881 82.91 82.3943 81.2359L79.4664 80.0964C78.6789 79.7903 78.3032 78.8951 78.6221 78.0956C78.9418 77.2975 79.8386 76.8952 80.6256 77.2032L83.4276 78.2932C84.5339 76.6851 86.8892 74.7595 89.4761 74.783L90.6372 71.1075Z" fill="#000000"/>
        </g>
        <path d="M91.6372 69.1075C91.8954 68.2889 92.7623 67.8197 93.571 68.0653C94.3803 68.3088 94.8258 69.1717 94.5651 69.9921L93.468 73.4642C94.9908 74.0344 96.1323 74.8083 96.8768 75.7764C96.9108 75.7864 96.9488 75.7904 96.9836 75.8017C97.6387 76.0187 98.5163 76.407 99.507 77.0435L100.353 74.1698L103.574 72.2731C104.313 71.8378 105.252 72.082 105.668 72.8181C106.085 73.5555 105.823 74.5051 105.083 74.9405L102.945 76.1997L102.075 79.1493C102.874 79.9553 103.695 80.9446 104.504 82.1466L108.693 80.8981L113.237 83.4662C113.969 83.8808 114.218 84.8232 113.792 85.5721C113.649 85.8215 113.449 86.0183 113.218 86.154C112.759 86.4245 112.179 86.4529 111.688 86.1764L108.262 84.2389L106.056 84.8967C106.464 85.9401 106.967 87.6974 107.008 90.0689L109.999 89.8558L113.204 92.7149C113.833 93.2743 113.881 94.2529 113.311 94.8996C113.198 95.0282 113.067 95.135 112.926 95.2178C112.365 95.5483 111.643 95.5028 111.139 95.0534L108.878 93.038L106.798 93.1849C106.674 94.0206 106.495 94.9022 106.239 95.8319L105.961 96.843C105.436 98.749 104.211 100.35 102.509 101.352C100.81 102.352 98.8381 102.635 96.9588 102.145L95.9599 101.885C95.0155 101.639 94.1563 101.348 93.3688 101.029L91.7698 103.171L92.3403 106.124C92.4711 106.793 92.1478 107.455 91.5866 107.786C91.4473 107.868 91.2906 107.93 91.1249 107.965C90.291 108.145 89.4832 107.614 89.3227 106.779L88.4879 102.464L90.604 99.632C88.5708 98.3718 87.3341 97.0098 86.6829 96.1433L84.5983 98.1752L84.5306 102.17C84.5202 102.742 84.2049 103.239 83.7454 103.51C83.5151 103.646 83.2498 103.726 82.966 103.726C82.1158 103.729 81.4406 103.038 81.4548 102.184L81.5464 96.8858L85.1402 93.3805C84.5634 92.1342 84.1648 90.9796 83.8885 89.9171L80.4988 89.4179L78.2931 90.718C77.5537 91.1535 76.6155 90.9105 76.198 90.1731C75.7814 89.437 76.0436 88.4862 76.7829 88.0507L79.935 86.1939L83.3753 86.6999C83.3121 85.4304 83.4327 84.4155 83.5813 83.6968C83.5894 83.6511 83.6091 83.6071 83.6214 83.5625C83.1559 82.3519 83.0881 80.91 83.3943 79.2359L80.4664 78.0964C79.6789 77.7903 79.3032 76.8951 79.6221 76.0956C79.9418 75.2975 80.8386 74.8952 81.6256 75.2032L84.4276 76.2932C85.5339 74.6851 87.8892 72.7595 90.4761 72.783L91.6372 69.1075Z" fill="url(#f)" opacity="0.64"/>
        <g filter="url(#g)" opacity="0.2">
            <path d="M87.3143 17.6468C87.7954 16.9578 88.7644 16.7932 89.4794 17.2793C89.7174 17.4421 89.8972 17.6575 90.0133 17.897C90.2447 18.3748 90.222 18.9514 89.901 19.4126L87.6532 22.6338L88.1201 24.8737C89.2044 24.5601 91.0153 24.2138 93.4018 24.3792L93.4501 21.4023L96.6051 18.4788C97.2225 17.9053 98.2099 17.9429 98.8096 18.5622C98.9289 18.6849 99.0244 18.8242 99.0952 18.9704C99.3779 19.554 99.2691 20.2643 98.7731 20.7245L96.5489 22.787L96.5135 24.8563C97.3423 25.0508 98.2131 25.305 99.1248 25.6388L100.116 26.0005C101.985 26.6848 103.485 28.036 104.342 29.8054C105.199 31.5734 105.309 33.548 104.652 35.3645L104.303 36.3293C103.973 37.2422 103.605 38.0671 103.216 38.8185L105.227 40.5862L108.244 40.2768C108.928 40.2055 109.565 40.5826 109.848 41.166C109.918 41.3109 109.967 41.4713 109.988 41.6383C110.095 42.4786 109.491 43.2322 108.637 43.3187L104.228 43.7705L101.569 41.4327C100.124 43.3347 98.6461 44.4406 97.7182 45.0098L99.5769 47.2468L103.585 47.6599C104.158 47.7197 104.631 48.0751 104.863 48.5529C104.978 48.7924 105.035 49.0616 105.01 49.3422C104.938 50.1834 104.186 50.7916 103.328 50.7036L98.0127 50.1548L94.8064 46.2965C93.5034 46.7592 92.3078 47.0528 91.216 47.2342L90.4172 50.5446L91.5293 52.8388C91.9017 53.6079 91.575 54.5144 90.7974 54.8635C90.0211 55.2119 89.0887 54.8702 88.716 54.1013L87.1272 50.8229L87.9388 47.464C86.6579 47.4166 85.6485 47.2097 84.9394 47.0005C84.8942 46.9885 84.8512 46.9651 84.8074 46.9491C83.5501 47.3048 82.095 47.2466 80.4398 46.7988L79.0381 49.5963C78.6613 50.3488 77.7282 50.6432 76.9528 50.2586C76.1792 49.8732 75.8542 48.9517 76.2328 48.2L77.5744 45.5227C76.0558 44.2892 74.3279 41.7922 74.5789 39.2354L70.9875 37.7693C70.1876 37.443 69.7921 36.5446 70.1099 35.766C70.4257 34.9865 71.3327 34.6207 72.1341 34.9495L75.5265 36.3352C76.2333 34.8783 77.1115 33.8159 78.1497 33.1634C78.1626 33.1306 78.1698 33.093 78.1841 33.0596C78.4598 32.4304 78.9273 31.5961 79.6538 30.6714L76.8406 29.5853L75.2172 26.2351C74.8453 25.4663 75.1732 24.5599 75.9491 24.2115C76.7268 23.8625 77.6579 24.2046 78.0305 24.9736L79.1081 27.197L81.9952 28.3131C82.8752 27.5925 83.9414 26.8663 85.2202 26.1702L84.3346 21.9182L87.3143 17.6468Z" fill="#000000"/>
        </g>
        <path d="M86.3143 15.6468C86.7954 14.9578 87.7644 14.7932 88.4794 15.2793C88.7174 15.4421 88.8972 15.6575 89.0133 15.897C89.2447 16.3748 89.222 16.9514 88.901 17.4126L86.6532 20.6338L87.1201 22.8737C88.2044 22.5601 90.0153 22.2138 92.4018 22.3792L92.4501 19.4023L95.6051 16.4788C96.2225 15.9053 97.2099 15.9429 97.8096 16.5622C97.9289 16.6849 98.0244 16.8242 98.0952 16.9704C98.3779 17.554 98.2691 18.2643 97.7731 18.7245L95.5489 20.787L95.5135 22.8563C96.3423 23.0508 97.2131 23.305 98.1248 23.6388L99.1157 24.0005C100.985 24.6848 102.485 26.036 103.342 27.8054C104.199 29.5734 104.309 31.548 103.652 33.3645L103.303 34.3293C102.973 35.2422 102.605 36.0671 102.216 36.8185L104.227 38.5862L107.244 38.2768C107.928 38.2055 108.565 38.5826 108.848 39.166C108.918 39.3109 108.967 39.4713 108.988 39.6383C109.095 40.4786 108.491 41.2322 107.637 41.3187L103.228 41.7705L100.569 39.4327C99.1236 41.3347 97.6461 42.4406 96.7182 43.0098L98.5769 45.2468L102.585 45.6599C103.158 45.7197 103.631 46.0751 103.863 46.5529C103.978 46.7924 104.035 47.0616 104.01 47.3422C103.938 48.1834 103.186 48.7916 102.328 48.7036L97.0127 48.1548L93.8064 44.2965C92.5034 44.7592 91.3078 45.0528 90.216 45.2342L89.4172 48.5446L90.5293 50.8388C90.9017 51.6079 90.575 52.5144 89.7974 52.8635C89.0211 53.2119 88.0887 52.8702 87.716 52.1013L86.1272 48.8229L86.9388 45.464C85.6579 45.4166 84.6485 45.2097 83.9394 45.0005C83.8942 44.9885 83.8512 44.9651 83.8074 44.9491C82.5501 45.3048 81.095 45.2466 79.4398 44.7988L78.0381 47.5963C77.6613 48.3488 76.7282 48.6432 75.9528 48.2586C75.1792 47.8732 74.8542 46.9517 75.2328 46.2L76.5744 43.5227C75.0558 42.2892 73.3279 39.7922 73.5789 37.2354L69.9875 35.7693C69.1876 35.443 68.7921 34.5446 69.1099 33.766C69.4257 32.9865 70.3327 32.6207 71.1341 32.9495L74.5265 34.3352C75.2333 32.8783 76.1115 31.8159 77.1497 31.1634C77.1626 31.1306 77.1698 31.093 77.1841 31.0596C77.4598 30.4304 77.9273 29.5961 78.6538 28.6714L75.8406 27.5853L74.2172 24.2351C73.8453 23.4663 74.1732 22.5599 74.9491 22.2115C75.7268 21.8625 76.6579 22.2046 77.0305 22.9736L78.1081 25.197L80.9952 26.3131C81.8752 25.5925 82.9414 24.8663 84.2202 24.1702L83.3346 19.9182L86.3143 15.6468Z" fill="url(#h)" opacity="0.64"/>
        <g filter="url(#i)" opacity="0.2">
            <path d="M34.3365 21.1314C35.1173 20.7911 36.0286 21.1343 36.3679 21.9026L37.5803 24.634C39.4787 24.2712 42.4775 24.5577 44.2815 26.3843L47.6577 24.598C48.4095 24.2 49.3471 24.4745 49.7451 25.2138C50.1451 25.9522 49.8569 26.8745 49.1022 27.2721L45.9126 28.9593C46.5869 30.4276 46.8509 31.7735 46.7005 32.9786C46.7176 33.0095 46.7419 33.0386 46.7586 33.0709C47.0684 33.6827 47.4154 34.5718 47.6693 35.7149L50.2663 34.2753L53.8533 35.1874C54.6766 35.397 55.1669 36.226 54.9477 37.0378C54.7278 37.8511 53.8811 38.3391 53.0576 38.1296L50.6762 37.5235L48.0096 38.9999C48.0106 40.1286 47.8994 41.4026 47.6316 42.8182L51.4487 44.8667L52.8574 49.8612C53.0843 50.6671 52.6025 51.5065 51.7813 51.7378C51.5072 51.8143 51.2295 51.8137 50.973 51.7485C50.4614 51.6183 50.0331 51.2323 49.8805 50.6937L48.8189 46.9269L46.8079 45.8477C46.3686 46.8711 45.4987 48.4664 43.8754 50.1711L46.1291 52.1128L46.3931 56.3769C46.4461 57.2123 45.7987 57.9372 44.9476 57.9961C44.7787 58.0081 44.6112 57.9922 44.4546 57.9524C43.8297 57.7933 43.3538 57.2554 43.3117 56.5848L43.1242 53.5785L41.5579 52.2264C40.8891 52.7306 40.1491 53.2287 39.3216 53.7067L38.4214 54.2274C36.7246 55.2074 34.7472 55.4815 32.8524 54.9996C30.9594 54.5178 29.3754 53.3378 28.3943 51.6766L27.8732 50.7947C27.3797 49.9603 26.9775 49.1532 26.6453 48.3771L24.028 48.7724L22.3737 51.259C21.9994 51.8238 21.3106 52.0657 20.6856 51.9069C20.5304 51.8674 20.3773 51.8007 20.236 51.7097C19.5241 51.2534 19.3254 50.3134 19.7942 49.6106L22.2113 45.9759L25.6726 45.4543C25.1197 43.1413 25.1977 41.3134 25.3429 40.2451L22.4608 40.2228L19.6318 42.9998C19.2263 43.3966 18.6574 43.5272 18.1457 43.3971C17.8892 43.3318 17.6465 43.2032 17.4467 43.0047C16.8465 42.4119 16.8522 41.4514 17.4573 40.857L21.2116 37.1757L26.1812 37.2126C26.6432 35.9279 27.1672 34.8322 27.7127 33.8878L25.6755 31.1632L23.2178 30.5396C22.3942 30.3301 21.9035 29.5017 22.1233 28.6883C22.3428 27.8764 23.1891 27.3873 24.0125 27.5965L27.5241 28.4901L29.5922 31.2545C30.4318 30.313 31.2234 29.6801 31.8285 29.2759C31.866 29.2493 31.9107 29.2318 31.9503 29.2089C32.4659 28.0274 33.4222 26.9601 34.8035 25.9909L33.5369 23.1372C33.196 22.3698 33.5553 21.4735 34.3365 21.1314Z" fill="#000000"/>
        </g>
        <path d="M33.3365 19.1314C34.1173 18.7911 35.0286 19.1343 35.3679 19.9026L36.5803 22.634C38.4787 22.2712 41.4775 22.5577 43.2815 24.3843L46.6577 22.598C47.4095 22.2 48.3471 22.4745 48.7451 23.2138C49.1451 23.9522 48.8569 24.8745 48.1022 25.2721L44.9126 26.9593C45.5869 28.4276 45.8509 29.7735 45.7005 30.9786C45.7176 31.0095 45.7419 31.0386 45.7586 31.0709C46.0684 31.6827 46.4154 32.5718 46.6693 33.7149L49.2663 32.2753L52.8533 33.1874C53.6766 33.397 54.1669 34.226 53.9477 35.0378C53.7278 35.8511 52.8811 36.3391 52.0576 36.1296L49.6762 35.5235L47.0096 36.9999C47.0106 38.1286 46.8994 39.4026 46.6316 40.8182L50.4487 42.8667L51.8574 47.8612C52.0843 48.6671 51.6025 49.5065 50.7813 49.7378C50.5072 49.8143 50.2295 49.8137 49.973 49.7485C49.4614 49.6183 49.0331 49.2323 48.8805 48.6937L47.8189 44.9269L45.8079 43.8477C45.3686 44.8711 44.4987 46.4664 42.8754 48.1711L45.1291 50.1128L45.3931 54.3769C45.4461 55.2123 44.7987 55.9372 43.9476 55.9961C43.7787 56.0081 43.6112 55.9922 43.4546 55.9524C42.8297 55.7933 42.3538 55.2554 42.3117 54.5848L42.1242 51.5785L40.5579 50.2264C39.8891 50.7306 39.1491 51.2287 38.3216 51.7067L37.4214 52.2274C35.7246 53.2074 33.7472 53.4815 31.8524 52.9996C29.9594 52.5178 28.3754 51.3378 27.3943 49.6766L26.8732 48.7947C26.3797 47.9603 25.9775 47.1532 25.6453 46.3771L23.028 46.7724L21.3737 49.259C20.9994 49.8238 20.3106 50.0657 19.6856 49.9069C19.5304 49.8674 19.3773 49.8007 19.236 49.7097C18.5241 49.2534 18.3254 48.3134 18.7942 47.6106L21.2113 43.9759L24.6726 43.4543C24.1197 41.1413 24.1977 39.3134 24.3429 38.2451L21.4608 38.2228L18.6318 40.9998C18.2263 41.3966 17.6574 41.5272 17.1457 41.3971C16.8892 41.3318 16.6465 41.2032 16.4467 41.0047C15.8465 40.4119 15.8522 39.4514 16.4573 38.857L20.2116 35.1757L25.1812 35.2126C25.6432 33.9279 26.1672 32.8322 26.7127 31.8878L24.6755 29.1632L22.2178 28.5396C21.3942 28.3301 20.9035 27.5017 21.1233 26.6883C21.3428 25.8764 22.1891 25.3873 23.0125 25.5965L26.5241 26.4901L28.5922 29.2545C29.4318 28.313 30.2234 27.6801 30.8285 27.2759C30.866 27.2493 30.9107 27.2318 30.9503 27.2089C31.4659 26.0274 32.4222 24.9601 33.8035 23.9909L32.5369 21.1372C32.196 20.3698 32.5553 19.4735 33.3365 19.1314Z" fill="url(#j)" opacity="0.64"/>
        <g fill="#000000" opacity="0.35">
            <path d="M95.527 89.105C95.761 88.98 96.036 88.953 96.29 89.031 96.545 89.109 96.758 89.285 96.883 89.521 97.008 89.756 97.034 90.032 96.956 90.288 96.879 90.543 96.702 90.757 96.468 90.882 96.233 91.008 95.958 91.034 95.704 90.956 95.45 90.878 95.236 90.702 95.111 90.467 94.987 90.231 94.96 89.955 95.038 89.7 95.116 89.445 95.292 89.23 95.527 89.105ZM91.897 81.928C92.559 81.618 93.326 81.551 94.052 81.774 95.213 82.13 96.051 83.159 96.167 84.372 96.25 85.237 95.95 86.075 95.386 86.695L95.941 87.744 94.17 88.688 93.228 86.911C93.104 86.675 93.077 86.4 93.155 86.144 93.233 85.889 93.409 85.675 93.643 85.55 94.004 85.357 94.209 84.973 94.17 84.565 94.131 84.157 93.856 83.819 93.465 83.699 93.075 83.579 92.659 83.705 92.399 84.021 92.139 84.337 92.095 84.772 92.287 85.134L90.517 86.078C89.947 85.003 90.079 83.681 90.851 82.74 91.14 82.388 91.5 82.115 91.897 81.928ZM34.647 38.906C34.882 38.781 35.157 38.754 35.411 38.832 35.665 38.911 35.879 39.087 36.004 39.323 36.128 39.559 36.155 39.835 36.077 40.09 35.999 40.345 35.823 40.558 35.588 40.683 35.354 40.809 35.079 40.836 34.825 40.758 34.57 40.68 34.357 40.503 34.232 40.268 34.107 40.032 34.081 39.756 34.159 39.501 34.236 39.246 34.413 39.032 34.647 38.906ZM85.185 32.675C85.988 32.726 86.722 33.103 87.243 33.692L88.34 33.247 89.092 35.114 87.232 35.868C86.986 35.968 86.709 35.966 86.465 35.862 86.22 35.758 86.027 35.56 85.927 35.312 85.774 34.932 85.414 34.686 85.005 34.682 84.597 34.679 84.234 34.918 84.074 35.296 83.915 35.673 83.996 36.102 84.282 36.395 84.568 36.687 84.994 36.776 85.373 36.623L86.124 38.488C84.998 38.945 83.702 38.675 82.851 37.806 82.532 37.48 82.299 37.092 82.156 36.676 81.917 35.982 81.932 35.21 82.228 34.509 82.703 33.388 83.81 32.658 85.024 32.669L85.185 32.675ZM36.588 31.014C37.041 30.97 37.488 31.032 37.9 31.182 38.587 31.432 39.177 31.93 39.533 32.602 40.102 33.678 39.97 35 39.198 35.941 38.648 36.611 37.845 36.991 37.009 37.029L36.663 38.164 34.745 37.575 35.332 35.651C35.41 35.395 35.585 35.181 35.82 35.056 36.054 34.931 36.329 34.904 36.583 34.982 36.974 35.102 37.391 34.976 37.651 34.66 37.91 34.343 37.954 33.909 37.762 33.547 37.571 33.185 37.187 32.979 36.78 33.018 36.374 33.058 36.038 33.333 35.918 33.725L34 33.137C34.355 31.972 35.38 31.131 36.588 31.014ZM90.199 32.493C90.446 32.393 90.722 32.396 90.967 32.5 91.212 32.604 91.405 32.802 91.505 33.05 91.604 33.297 91.602 33.575 91.498 33.82 91.394 34.066 91.197 34.26 90.951 34.36 90.704 34.46 90.428 34.457 90.184 34.353 89.939 34.249 89.745 34.051 89.645 33.804 89.546 33.556 89.548 33.279 89.652 33.033 89.756 32.787 89.953 32.593 90.199 32.493Z"/>
        </g>
    </g>
    <path d="M18 82H38V102H18z" fill="#dcdcdc"/>
    <g filter="url(#k)" opacity="0.2">
        <path d="M19 81C19 94.8067 30.1933 106 44 106C57.8067 106 69 94.8067 69 81C69 67.1932 57.8067 57 44 57C30.1933 57 19 67.1932 19 81Z" fill="#000000"/>
    </g>
    <mask id="l" height="50" width="50" x="16" y="53" style="mask-type:alpha" maskUnits="userSpaceOnUse">
        <path d="M16 78C16 91.8067 27.1933 103 41 103C54.8067 103 66 91.8067 66 78C66 64.1932 54.8067 53 41 53C27.1933 53 16 64.1932 16 78Z" fill="#000000"/>
    </mask>
    <g mask="url(#l)">
        <path d="M16 78C16 91.8067 27.1933 103 41 103C54.8067 103 66 91.8067 66 78C66 64.1932 54.8067 53 41 53C27.1933 53 16 64.1932 16 78Z" fill="#182426"/>
        <g filter="url(#m)" opacity="0.2">
            <path d="M37.3091 62.0271C38.7226 61.8247 40.0464 62.7785 40.2569 64.163L41.016 69.0864C44.2479 69.3416 48.9743 71.1261 51.0889 74.8576L57.3402 73.479C58.7321 73.1715 60.1265 74.0268 60.4448 75.3905C60.7666 76.7534 59.8957 78.1073 58.4995 78.4131L52.5931 79.7151C53.0376 82.3723 52.873 84.6518 52.0989 86.5219C52.1128 86.5791 52.1381 86.6374 52.1508 86.6967C52.3827 87.8165 52.5527 89.3973 52.4601 91.346L57.297 90.1799L62.6995 93.2306C63.9397 93.9309 64.3681 95.4791 63.6554 96.6869C62.9412 97.8966 61.3565 98.3062 60.1161 97.6059L56.5292 95.5812L51.5636 96.7764C51.0679 98.5907 50.3272 100.588 49.27 102.745L54.5449 107.722L54.6239 116.368C54.6361 117.763 53.4865 118.901 52.0556 118.91C51.5783 118.912 51.1293 118.787 50.7428 118.569C49.9723 118.134 49.4484 117.325 49.4387 116.392L49.3814 109.871L46.6023 107.25C45.4406 108.7 43.3305 110.878 39.953 112.9L42.7429 117.016L41.2928 123.984C41.0106 125.35 39.6424 126.229 38.2391 125.948C37.9604 125.892 37.6974 125.793 37.4616 125.659C36.5204 125.128 35.9862 124.054 36.2137 122.957L37.2356 118.044L35.2967 115.181C33.9921 115.696 32.5742 116.168 31.0242 116.571L29.3394 117.011C26.1619 117.837 22.8416 117.404 19.9878 115.793C17.1364 114.184 15.0931 111.588 14.2371 108.485L13.7819 106.837C13.3509 105.278 13.0552 103.804 12.8595 102.41L8.45077 101.89L4.6779 105.155C3.82321 105.897 2.60234 105.982 1.6609 105.45C1.42715 105.319 1.20817 105.145 1.01965 104.936C0.0687886 103.888 0.161496 102.29 1.22943 101.367L6.7433 96.5941L12.574 97.2845C12.6982 93.3232 13.6299 90.4202 14.3355 88.7679L9.68136 87.4604L3.87985 90.6729C3.04897 91.1315 2.07047 91.0908 1.29972 90.6557C0.913418 90.4375 0.577486 90.1233 0.341635 89.7161C-0.368235 88.4987 0.0642694 86.9584 1.30513 86.2706L9.00227 82.0128L17.0292 84.2652C18.3428 82.4051 19.6721 80.8763 20.9708 79.5997L18.874 74.3225L15.1725 72.2341C13.9321 71.5338 13.5025 69.9867 14.2166 68.7768C14.9294 67.5692 16.5144 67.1578 17.7548 67.8577L23.0438 70.8425L25.173 76.1985C26.9467 75.0561 28.5066 74.3876 29.6639 74.0054C29.7362 73.9793 29.8158 73.9718 29.8899 73.9525C31.2446 72.2816 33.2627 70.9895 35.9249 70.0421L35.1323 64.8966C34.9186 63.513 35.8944 62.2321 37.3091 62.0271Z" fill="#000000"/>
        </g>
        <path d="M36.3091 60.0271C37.7226 59.8247 39.0464 60.7785 39.2569 62.163L40.016 67.0864C43.2479 67.3416 47.9743 69.1261 50.0889 72.8576L56.3402 71.479C57.7321 71.1715 59.1265 72.0267 59.4448 73.3905C59.7666 74.7534 58.8957 76.1073 57.4995 76.4131L51.5931 77.7151C52.0376 80.3723 51.873 82.6518 51.0989 84.5219C51.1128 84.5791 51.1381 84.6374 51.1508 84.6967C51.3827 85.8165 51.5527 87.3973 51.4601 89.346L56.297 88.1799L61.6995 91.2306C62.9397 91.9309 63.3681 93.4791 62.6554 94.6868C61.9412 95.8966 60.3565 96.3061 59.1161 95.6059L55.5292 93.5811L50.5636 94.7764C50.0679 96.5907 49.3272 98.5884 48.27 100.745L53.5449 105.722L53.6239 114.368C53.6361 115.763 52.4865 116.901 51.0556 116.91C50.5783 116.912 50.1293 116.787 49.7428 116.569C48.9723 116.134 48.4484 115.325 48.4387 114.392L48.3814 107.871L45.6023 105.25C44.4406 106.7 42.3305 108.878 38.953 110.9L41.7429 115.016L40.2928 121.984C40.0106 123.35 38.6424 124.229 37.2391 123.947C36.9604 123.892 36.6974 123.793 36.4616 123.659C35.5204 123.128 34.9862 122.054 35.2137 120.957L36.2356 116.044L34.2967 113.181C32.9921 113.696 31.5742 114.168 30.0242 114.571L28.3394 115.011C25.1619 115.837 21.8416 115.404 18.9878 113.793C16.1364 112.183 14.0931 109.588 13.2371 106.485L12.7819 104.837C12.3509 103.278 12.0552 101.804 11.8595 100.41L7.45077 99.8896L3.6779 103.155C2.82321 103.897 1.60234 103.982 0.660898 103.45C0.427152 103.319 0.208173 103.144 0.0196498 102.936C-0.931211 101.888 -0.838504 100.29 0.229434 99.3675L5.7433 94.5941L11.574 95.2845C11.6982 91.3232 12.6299 88.4202 13.3355 86.7679L8.68136 85.4604L2.87985 88.6729C2.04897 89.1315 1.07047 89.0907 0.299723 88.6556C-0.086581 88.4375 -0.422513 88.1232 -0.658364 87.7161C-1.36823 86.4987 -0.93573 84.9584 0.30513 84.2706L8.00227 80.0128L16.0292 82.2652C17.3428 80.4051 18.6721 78.8763 19.9708 77.5997L17.874 72.3225L14.1725 70.2341C12.9321 69.5338 12.5025 67.9867 13.2166 66.7768C13.9294 65.5691 15.5144 65.1578 16.7548 65.8577L22.0438 68.8425L24.173 74.1984C25.9467 73.0561 27.5066 72.3875 28.6639 72.0054C28.7362 71.9793 28.8158 71.9717 28.8899 71.9525C30.2446 70.2816 32.2627 68.9895 34.9249 68.0421L34.1323 62.8965C33.9186 61.513 34.8944 60.2321 36.3091 60.0271Z" fill="url(#n)" opacity="0.5"/>
        <path d="M40.1917 75.3212C40.9494 74.9079 41.6152 74.9098 42.1162 75.2333C42.6172 75.5569 42.9555 76.1983 43 77.0222L42.9981 91.3015C43.0327 92.7873 41.51 93.3439 40.5513 92.7897L27.6869 85.3514C26.6633 84.7595 26.8322 83.1491 27.8721 82.5555L40.1917 75.3212ZM36.3681 85.4168C35.8297 85.1055 35.1499 85.2687 34.8548 85.7799C34.5599 86.2914 34.7586 86.9635 35.2972 87.2749C35.8357 87.586 36.5156 87.4224 36.8105 86.9109C37.1051 86.3995 36.9063 85.7282 36.3681 85.4168ZM36.4606 82.9937C36.1707 83.479 36.3875 84.1895 36.903 84.4878C37.4186 84.7859 38.1415 84.6189 38.4163 84.1247L41.094 79.4804L39.1384 78.3494L36.4606 82.9937Z" fill="#000000" fill-rule="evenodd" clip-rule="evenodd" opacity="0.35"/>
    </g>
    <path d="M16 79C16 92.8067 27.1933 104 41 104C54.8067 104 66 92.8067 66 79C66 65.1932 54.8067 55 41 55C27.1933 55 16 65.1932 16 79Z" stroke="url(#o)" stroke-linejoin="round" stroke-width="3"/>
    <circle cx="41" cy="79" r="25" fill="url(#p)"/>
    <path d="M16 78C16 91.8067 27.1933 103 41 103C54.8067 103 66 91.8067 66 78C66 64.1932 54.8067 53 41 53C27.1933 53 16 64.1932 16 78Z" stroke="#868e90" stroke-linejoin="round" stroke-width="3"/>
    <defs>
        <linearGradient id="a" x1="12" x2="116" y1="-5" y2="-5" gradientUnits="userSpaceOnUse">
            <stop stop-color="#384446"/>
            <stop stop-color="#9a9996" offset="0.0357143"/>
            <stop stop-color="#5c6364" offset="0.0713653"/>
            <stop stop-color="#5c6364" offset="0.928571"/>
            <stop stop-color="#9a9996" offset="0.964286"/>
            <stop stop-color="#384446" offset="1"/>
        </linearGradient>
        <linearGradient id="c" x1="64" x2="64" y1="18" y2="102" gradientUnits="userSpaceOnUse">
            <stop stop-color="#384446"/>
            <stop stop-color="#384446" stop-opacity="0.5" offset="1"/>
        </linearGradient>
        <linearGradient id="f" x1="76" x2="100.036" y1="68" y2="103.6" gradientUnits="userSpaceOnUse">
            <stop stop-color="#57e389"/>
            <stop stop-color="#57e389" stop-opacity="0.45" offset="0.548369"/>
            <stop stop-color="#4b4b4b" stop-opacity="0.5" offset="1"/>
        </linearGradient>
        <linearGradient id="h" x1="69" x2="85.682" y1="53" y2="11.661" gradientUnits="userSpaceOnUse">
            <stop stop-color="#57e389"/>
            <stop stop-color="#57e389" stop-opacity="0.5" offset="0.548369"/>
            <stop stop-color="#4b4b4b" stop-opacity="0.45" offset="0.896473"/>
        </linearGradient>
        <linearGradient id="j" x1="54" x2="31.8998" y1="56" y2="14.6573" gradientUnits="userSpaceOnUse">
            <stop stop-color="#57e389"/>
            <stop stop-color="#57e389" stop-opacity="0.5" offset="0.548369"/>
            <stop stop-color="#4b4b4b" stop-opacity="0.45" offset="1"/>
        </linearGradient>
        <linearGradient id="n" x1="63" x2="-1" y1="60" y2="124" gradientUnits="userSpaceOnUse">
            <stop stop-color="#ff3c3c"/>
            <stop stop-color="#ff2828" stop-opacity="0.9" offset="0.445091"/>
            <stop stop-color="#4b4b4b" stop-opacity="0.6" offset="0.8"/>
        </linearGradient>
        <linearGradient id="o" x1="41" x2="41" y1="54.5" y2="104.5" gradientUnits="userSpaceOnUse">
            <stop stop-opacity="0.5" offset="0.300718"/>
            <stop stop-color="#6b7273" offset="1"/>
        </linearGradient>
        <filter id="e" height="44" width="42" x="73" y="68" filterUnits="userSpaceOnUse">
            <feFlood flood-opacity="0" result="BackgroundImageFix"/>
            <feBlend in="SourceGraphic" in2="BackgroundImageFix" result="shape"/>
            <feGaussianBlur stdDeviation="1" result="effect1_foregroundBlur_5_5745"/>
        </filter>
        <filter id="g" height="42" width="44" x="68" y="15" filterUnits="userSpaceOnUse">
            <feFlood flood-opacity="0" result="BackgroundImageFix"/>
            <feBlend in="SourceGraphic" in2="BackgroundImageFix" result="shape"/>
            <feGaussianBlur stdDeviation="1" result="effect1_foregroundBlur_5_5745"/>
        </filter>
        <filter id="i" height="41" width="42" x="15" y="19" filterUnits="userSpaceOnUse">
            <feFlood flood-opacity="0" result="BackgroundImageFix"/>
            <feBlend in="SourceGraphic" in2="BackgroundImageFix" result="shape"/>
            <feGaussianBlur stdDeviation="1" result="effect1_foregroundBlur_5_5745"/>
        </filter>
        <filter id="k" height="53" width="54" x="17" y="55" filterUnits="userSpaceOnUse">
            <feFlood flood-opacity="0" result="BackgroundImageFix"/>
            <feBlend in="SourceGraphic" in2="BackgroundImageFix" result="shape"/>
            <feGaussianBlur stdDeviation="1" result="effect1_foregroundBlur_5_5745"/>
        </filter>
        <filter id="m" height="68" width="68" x="-2" y="60" filterUnits="userSpaceOnUse">
            <feFlood flood-opacity="0" result="BackgroundImageFix"/>
            <feBlend in="SourceGraphic" in2="BackgroundImageFix" result="shape"/>
            <feGaussianBlur stdDeviation="1" result="effect1_foregroundBlur_5_5745"/>
        </filter>
        <radialGradient id="b" cx="0" cy="0" r="1" gradientTransform="matrix(58 0 0 54.19 64 61)" gradientUnits="userSpaceOnUse">
            <stop stop-color="#324042"/>
            <stop stop-color="#1a282a" offset="0.45"/>
            <stop offset="1"/>
        </radialGradient>
        <radialGradient id="p" cx="0" cy="0" r="1" gradientTransform="matrix(0 50 -50 0 41 54)" gradientUnits="userSpaceOnUse">
            <stop stop-color="#d9d9d9" stop-opacity="0.45"/>
            <stop stop-opacity="0" offset="0.7"/>
        </radialGradient>
    </defs>
</svg>
