<?xml version="1.0" encoding="UTF-8" standalone="no"?>
<svg
    xmlns="http://www.w3.org/2000/svg"
    viewBox="0 0 128 128"
    fill="none"
    version="1.0"
    height="128"
    width="128">
    <title>Lenspect Scalable Icon</title>
    <path d="M110 14H18C14.6863 14 12 16.6863 12 20V110C12 113.314 14.6863 116 18 116H110C113.314 116 116 113.314 116 110V20C116 16.6863 113.314 14 110 14Z" fill="url(#a)"/>
    <path d="M108 12H20C15.5817 12 12 15.5817 12 20V100C12 104.418 15.5817 108 20 108H108C112.418 108 116 104.418 116 100V20C116 15.5817 112.418 12 108 12Z" fill="#dcdcdc"/>
    <path d="M104 20H24C21.7909 20 20 21.7909 20 24V96C20 98.2091 21.7909 100 24 100H104C106.209 100 108 98.2091 108 96V24C108 21.7909 106.209 20 104 20Z" fill="url(#b)"/>
    <path d="M104 19C106.761 19 109 21.2386 109 24V96C109 98.7614 106.761 101 104 101H24C21.2386 101 19 98.7614 19 96V24C19 21.2386 21.2386 19 24 19H104Z" stroke="url(#c)" stroke-linecap="square" stroke-linejoin="round" stroke-miterlimit="16" stroke-width="2" stroke-opacity="0.42"/>
    <mask id="d" height="80" width="88" x="20" y="20" style="mask-type:luminance" maskUnits="userSpaceOnUse">
        <path d="M103.8 20H24.2C21.8804 20 20 21.8804 20 24.2V95.8C20 98.1196 21.8804 100 24.2 100H103.8C106.12 100 108 98.1196 108 95.8V24.2C108 21.8804 106.12 20 103.8 20Z" fill="#ffffff"/>
    </mask>
    <g mask="url(#d)">
        <g fill="#000000" opacity="0.35">
            <path d="M76 70V76H74V72H73V71L74 70H76Z"/>
            <path d="M78 67H72V61H78V67ZM74 65H76V63H74V65Z" fill-rule="evenodd" clip-rule="evenodd"/>
            <path d="M84 61V67H82V63H81V62L82 61H84ZM61 43V49H59V45H58V44L59 43H61Z"/>
            <path d="M70 58H64V52H70V58ZM66 56H68V54H66V56Z" fill-rule="evenodd" clip-rule="evenodd"/>
            <path d="M76 52V58H74V54H73V53L74 52H76Z"/>
            <path d="M70 49H64V43H70V49ZM66 47H68V45H66V47Z" fill-rule="evenodd" clip-rule="evenodd"/>
        </g>
        <g filter="url(#e)" opacity="0.2">
            <path d="M90.0488 69.1354C90.3138 68.2963 91.2033 67.8155 92.0332 68.067C92.8637 68.3166 93.321 69.2008 93.0537 70.0416L91.9277 73.6012C93.4902 74.1855 94.6617 74.9783 95.4257 75.9703C95.4607 75.9806 95.5004 75.9851 95.5361 75.9967C96.2084 76.2192 97.1093 76.6169 98.1259 77.2692L98.5468 75.8395C98.834 74.8657 99.4813 74.0378 100.356 73.5231L102.3 72.3795C103.059 71.9336 104.022 72.1838 104.449 72.9381C104.877 73.694 104.607 74.6676 103.849 75.1139L103.016 75.6041C102.141 76.1185 101.494 76.9458 101.207 77.9186L100.762 79.4284C101.582 80.2544 102.425 81.2687 103.255 82.5006L105.111 81.9479C106.672 81.4833 108.354 81.6729 109.772 82.4733L112.217 83.8532C112.969 84.2782 113.223 85.2439 112.786 86.0114C112.64 86.267 112.435 86.469 112.198 86.608C111.727 86.8853 111.13 86.9139 110.627 86.6305L109.169 85.8073C107.854 85.0647 106.294 84.8882 104.847 85.319C105.266 86.3885 105.782 88.1899 105.823 90.6207C107.786 90.4811 109.722 91.1402 111.191 92.4489L112.184 93.3327C112.829 93.906 112.877 94.9091 112.293 95.5719C112.177 95.7037 112.043 95.8132 111.898 95.8981C111.323 96.2367 110.581 96.1906 110.063 95.7301L109.341 95.0866C108.319 94.177 106.973 93.7178 105.608 93.8141C105.482 94.6706 105.297 95.5751 105.034 96.528L104.75 97.5641C104.211 99.5177 102.953 101.158 101.207 102.185C99.4626 103.211 97.4394 103.501 95.5107 102.999L94.4853 102.732C93.5161 102.48 92.6343 102.182 91.8261 101.855C90.781 103.253 90.3734 105.028 90.705 106.742L90.7705 107.077C90.9046 107.763 90.5729 108.442 89.997 108.781C89.854 108.865 89.6925 108.928 89.5224 108.964C88.667 109.148 87.8387 108.604 87.6738 107.749L87.4902 106.803C87.0612 104.589 87.587 102.295 88.9384 100.489L88.9882 100.422C86.9018 99.1309 85.6322 97.7355 84.9638 96.8473L84.5966 97.2047C83.4617 98.3096 82.8091 99.8183 82.7822 101.402L82.7548 103.024C82.7441 103.61 82.4207 104.121 81.9492 104.398C81.7129 104.537 81.4406 104.619 81.1494 104.619C80.2768 104.622 79.584 103.914 79.5986 103.038L79.6494 100.078C79.6769 98.4957 80.3285 96.9886 81.4619 95.8844L83.3808 94.0153C82.7888 92.7379 82.3792 91.5544 82.0957 90.4655L80.0127 90.1588C79.1095 90.026 78.188 90.2055 77.4013 90.6686L76.3535 91.2858C75.5946 91.7321 74.6315 91.4831 74.2031 90.7272C73.7757 89.9727 74.0451 88.9988 74.8037 88.5524L76.8232 87.3639C77.6095 86.9013 78.531 86.7206 79.4336 86.8532L81.5693 87.1676C81.5045 85.8664 81.6287 84.8262 81.7812 84.0895C81.7895 84.0427 81.8096 83.9974 81.8222 83.9518C81.3445 82.711 81.2746 81.2329 81.5888 79.5172L78.5839 78.3493C77.7758 78.0355 77.3907 77.1179 77.7177 76.2985C78.0459 75.4805 78.9657 75.0678 79.7734 75.3834L82.6494 76.5006C83.7848 74.8523 86.2024 72.8788 88.8574 72.903L90.0488 69.1354Z" fill="#000000"/>
        </g>
        <path d="M91.0488 67.1354C91.3138 66.2963 92.2033 65.8155 93.0332 66.067C93.8637 66.3166 94.321 67.2008 94.0537 68.0416L92.9277 71.6012C94.4902 72.1855 95.6617 72.9783 96.4257 73.9703C96.4607 73.9806 96.5004 73.9851 96.5361 73.9967C97.2084 74.2192 98.1093 74.6169 99.1259 75.2692L99.5468 73.8395C99.834 72.8657 100.481 72.0378 101.356 71.5231L103.3 70.3795C104.059 69.9336 105.022 70.1838 105.449 70.9381C105.877 71.694 105.607 72.6676 104.849 73.1139L104.016 73.6041C103.141 74.1185 102.494 74.9458 102.207 75.9186L101.762 77.4284C102.582 78.2544 103.425 79.2687 104.255 80.5006L106.111 79.9479C107.672 79.4833 109.354 79.6729 110.772 80.4733L113.217 81.8532C113.969 82.2782 114.223 83.2439 113.786 84.0114C113.64 84.267 113.435 84.469 113.198 84.608C112.727 84.8853 112.13 84.9139 111.627 84.6305L110.169 83.8073C108.854 83.0647 107.294 82.8882 105.847 83.319C106.266 84.3885 106.782 86.1899 106.823 88.6207C108.786 88.4811 110.722 89.1402 112.191 90.4489L113.184 91.3327C113.829 91.906 113.877 92.9091 113.293 93.5719C113.177 93.7037 113.043 93.8132 112.898 93.8981C112.323 94.2367 111.581 94.1906 111.063 93.7301L110.341 93.0866C109.319 92.177 107.973 91.7178 106.608 91.8141C106.482 92.6706 106.297 93.5751 106.034 94.528L105.75 95.5641C105.211 97.5177 103.953 99.1583 102.207 100.185C100.463 101.211 98.4394 101.501 96.5107 100.999L95.4853 100.732C94.5161 100.48 93.6343 100.182 92.8261 99.8551C91.781 101.253 91.3734 103.028 91.705 104.742L91.7705 105.077C91.9046 105.763 91.5729 106.442 90.997 106.781C90.854 106.865 90.6925 106.928 90.5224 106.964C89.667 107.148 88.8387 106.604 88.6738 105.749L88.4902 104.803C88.0612 102.589 88.587 100.295 89.9384 98.4889L89.9882 98.4225C87.9018 97.1309 86.6322 95.7355 85.9638 94.8473L85.5966 95.2047C84.4617 96.3096 83.8091 97.8183 83.7822 99.402L83.7548 101.024C83.7441 101.61 83.4207 102.121 82.9492 102.398C82.7129 102.537 82.4406 102.619 82.1494 102.619C81.2768 102.622 80.584 101.914 80.5986 101.038L80.6494 98.0778C80.6769 96.4957 81.3285 94.9886 82.4619 93.8844L84.3808 92.0153C83.7888 90.7379 83.3792 89.5544 83.0957 88.4655L81.0127 88.1588C80.1095 88.026 79.188 88.2055 78.4013 88.6686L77.3535 89.2858C76.5946 89.7321 75.6315 89.4831 75.2031 88.7272C74.7757 87.9727 75.0451 86.9988 75.8037 86.5524L77.8232 85.3639C78.6095 84.9013 79.531 84.7206 80.4336 84.8532L82.5693 85.1676C82.5045 83.8664 82.6287 82.8262 82.7812 82.0895C82.7895 82.0427 82.8096 81.9974 82.8222 81.9518C82.3445 80.711 82.2746 79.2329 82.5888 77.5172L79.5839 76.3493C78.7758 76.0355 78.3907 75.1179 78.7177 74.2985C79.0459 73.4805 79.9657 73.0678 80.7734 73.3834L83.6494 74.5006C84.7848 72.8523 87.2024 70.8788 89.8574 70.903L91.0488 67.1354Z" fill="url(#f)" opacity="0.72"/>
        <g filter="url(#g)" opacity="0.2">
            <path d="M87.7469 16.6634C88.24 15.9564 89.2338 15.7876 89.9666 16.2865C90.2105 16.4535 90.3945 16.6746 90.5135 16.9203C90.7507 17.4107 90.7272 18.0026 90.3983 18.4759L89.4373 19.8558C88.5804 21.0855 88.2676 22.6141 88.5731 24.0814C89.6845 23.7595 91.541 23.4039 93.9871 23.5736C94.0187 21.6219 94.8453 19.7674 96.2762 18.4398L97.2703 17.5179C97.9031 16.9293 98.9154 16.9674 99.5301 17.6029C99.6523 17.7288 99.7504 17.8718 99.8231 18.0218C100.113 18.6208 100 19.3503 99.492 19.8226L98.7694 20.4945C97.775 21.4178 97.1998 22.7062 97.1766 24.0629C98.026 24.2625 98.919 24.5241 99.8533 24.8666L100.869 25.2377C102.784 25.9399 104.322 27.3263 105.201 29.142C106.079 30.9565 106.192 32.9837 105.518 34.848L105.161 35.8382C104.823 36.7751 104.445 37.6219 104.046 38.3929C105.36 39.5496 107.098 40.1049 108.84 39.9261L109.2 39.889C109.901 39.8158 110.554 40.2033 110.844 40.8021C110.915 40.9507 110.966 41.1152 110.987 41.2865C111.097 42.1489 110.478 42.9222 109.603 43.0111L108.561 43.1185C106.344 43.3459 104.133 42.6378 102.46 41.1654L102.358 41.0756C100.877 43.0276 99.3621 44.1623 98.411 44.7465L98.7518 45.1576C99.7546 46.366 101.192 47.1331 102.754 47.2943L104.425 47.4672C105.012 47.5286 105.497 47.8928 105.734 48.3832C105.853 48.6289 105.911 48.9057 105.886 49.1937C105.812 50.0568 105.04 50.6805 104.161 50.5902L101.149 50.2787C99.5879 50.1172 98.1518 49.3508 97.1492 48.1429L95.4266 46.0677C94.0912 46.5425 92.8659 46.8435 91.7469 47.0297L91.2625 49.0355C91.0457 49.9354 91.1483 50.8831 91.5516 51.7162L92.0672 52.7816C92.4489 53.5709 92.1143 54.5014 91.3172 54.8597C90.5215 55.2173 89.5664 54.8666 89.1844 54.0775L88.1795 52.0023C87.7761 51.1689 87.6742 50.2207 87.8914 49.3207L88.3875 47.266C87.0748 47.2173 86.0401 47.005 85.3133 46.7904C85.267 46.7781 85.2223 46.7541 85.1776 46.7377C83.8889 47.1026 82.3973 47.0429 80.701 46.5834L79.2645 49.4545C78.8782 50.2266 77.9214 50.5287 77.1268 50.1341C76.3337 49.7386 76.0004 48.7924 76.3885 48.0209L77.7635 45.2738C76.2069 44.0079 74.4359 41.4447 74.6932 38.8207L71.0125 37.3158C70.1927 36.981 69.7874 36.0592 70.1131 35.2601C70.4368 34.4601 71.3659 34.0848 72.1873 34.4222L75.6649 35.8441C76.3892 34.3491 77.2893 33.259 78.3533 32.5892C78.3666 32.5556 78.3738 32.5161 78.3885 32.4818C78.671 31.8361 79.1509 30.9804 79.8953 30.0316L78.4832 29.4857C77.5378 29.1203 76.7656 28.4088 76.324 27.4965L75.3475 25.4779C74.9665 24.6889 75.3024 23.7584 76.0975 23.4007C76.8945 23.0427 77.8493 23.394 78.2313 24.183L78.6492 25.0472C79.0905 25.9587 79.8611 26.669 80.8055 27.0345L82.2947 27.6107C83.1967 26.8712 84.2898 26.1259 85.6004 25.4115L85.2195 23.5785C84.8836 21.9632 85.2277 20.2809 86.1707 18.9271L87.7469 16.6634Z" fill="#000000"/>
        </g>
        <path d="M86.7469 14.6634C87.24 13.9564 88.2338 13.7876 88.9666 14.2865C89.2105 14.4535 89.3945 14.6746 89.5135 14.9203C89.7507 15.4107 89.7272 16.0026 89.3983 16.4759L88.4373 17.8558C87.5804 19.0855 87.2676 20.6141 87.5731 22.0814C88.6845 21.7595 90.541 21.4039 92.9871 21.5736C93.0187 19.6219 93.8453 17.7674 95.2762 16.4398L96.2703 15.5179C96.9031 14.9293 97.9154 14.9674 98.5301 15.6029C98.6523 15.7288 98.7504 15.8718 98.8231 16.0218C99.1128 16.6208 99.0003 17.3503 98.492 17.8226L97.7694 18.4945C96.775 19.4178 96.1998 20.7062 96.1766 22.0629C97.026 22.2625 97.919 22.5241 98.8533 22.8666L99.869 23.2377C101.784 23.9399 103.322 25.3263 104.201 27.142C105.079 28.9565 105.192 30.9837 104.518 32.848L104.161 33.8382C103.823 34.7751 103.445 35.6219 103.046 36.3929C104.36 37.5496 106.098 38.1049 107.84 37.9261L108.2 37.889C108.901 37.8158 109.554 38.2033 109.844 38.8021C109.915 38.9507 109.966 39.1152 109.987 39.2865C110.097 40.1489 109.478 40.9222 108.603 41.0111L107.561 41.1185C105.344 41.3459 103.133 40.6378 101.46 39.1654L101.358 39.0756C99.8771 41.0276 98.3621 42.1623 97.411 42.7465L97.7518 43.1576C98.7546 44.366 100.192 45.1331 101.754 45.2943L103.425 45.4672C104.012 45.5286 104.497 45.8928 104.734 46.3832C104.853 46.6289 104.911 46.9057 104.886 47.1937C104.812 48.0568 104.04 48.6805 103.161 48.5902L100.149 48.2787C98.5879 48.1172 97.1518 47.3508 96.1492 46.1429L94.4266 44.0677C93.0912 44.5425 91.8659 44.8435 90.7469 45.0297L90.2625 47.0355C90.0457 47.9354 90.1483 48.8831 90.5516 49.7162L91.0672 50.7816C91.4489 51.5709 91.1143 52.5014 90.3172 52.8597C89.5215 53.2173 88.5664 52.8666 88.1844 52.0775L87.1795 50.0023C86.7761 49.1689 86.6742 48.2207 86.8914 47.3207L87.3875 45.266C86.0748 45.2173 85.0401 45.005 84.3133 44.7904C84.267 44.7781 84.2223 44.7541 84.1776 44.7377C82.8889 45.1026 81.3973 45.0429 79.701 44.5834L78.2645 47.4545C77.8782 48.2266 76.9214 48.5287 76.1268 48.1341C75.3337 47.7386 75.0004 46.7924 75.3885 46.0209L76.7635 43.2738C75.2069 42.0079 73.4359 39.4447 73.6932 36.8207L70.0125 35.3158C69.1927 34.981 68.7874 34.0592 69.1131 33.2601C69.4368 32.4601 70.3659 32.0848 71.1873 32.4222L74.6649 33.8441C75.3892 32.3491 76.2893 31.259 77.3533 30.5892C77.3666 30.5556 77.3738 30.5161 77.3885 30.4818C77.671 29.8361 78.1509 28.9804 78.8953 28.0316L77.4832 27.4857C76.5378 27.1203 75.7656 26.4088 75.324 25.4965L74.3475 23.4779C73.9665 22.6889 74.3024 21.7584 75.0975 21.4007C75.8945 21.0427 76.8493 21.394 77.2313 22.183L77.6492 23.0472C78.0905 23.9587 78.8611 24.669 79.8055 25.0345L81.2947 25.6107C82.1967 24.8712 83.2898 24.1259 84.6004 23.4115L84.2195 21.5785C83.8836 19.9632 84.2277 18.2809 85.1707 16.9271L86.7469 14.6634Z" fill="url(#h)" opacity="0.72"/>
        <g filter="url(#i)" opacity="0.2">
            <path d="M33.793 20.1348C34.5942 19.7854 35.5298 20.1378 35.8779 20.9268L37.1221 23.7324C39.0705 23.3599 42.1476 23.6544 43.999 25.5303L47.4648 23.6953C48.2364 23.2867 49.1979 23.5689 49.6064 24.3281C50.0167 25.0864 49.7216 26.033 48.9473 26.4414L45.6738 28.1748C46.3658 29.6826 46.6367 31.0652 46.4824 32.3027C46.4999 32.3343 46.525 32.3644 46.542 32.3975C46.86 33.0257 47.216 33.9387 47.4766 35.1123L48.7539 34.4043C49.6453 33.9099 50.6918 33.7741 51.6797 34.0254L53.8232 34.5713C54.6681 34.7866 55.1712 35.638 54.9463 36.4717C54.7204 37.3066 53.8518 37.8076 53.0068 37.5928L52.1006 37.3613C51.1129 37.1098 50.0663 37.2454 49.1748 37.7393L47.8262 38.4863C47.8272 39.6456 47.7123 40.9543 47.4375 42.4082L49.1103 43.3057C50.545 44.0761 51.6051 45.3975 52.0469 46.9648L52.8008 49.6416C53.0335 50.4691 52.539 51.3307 51.6963 51.5684C51.4151 51.6468 51.1304 51.6461 50.8672 51.5791C50.3421 51.4454 49.9027 51.0493 49.7461 50.4961L49.291 48.8828C48.8852 47.4418 47.9107 46.2278 46.5918 45.5195C46.1409 46.5706 45.2488 48.2094 43.583 49.96C45.0618 51.2351 45.9634 53.053 46.084 55.002L46.167 56.333C46.2214 57.1908 45.5568 57.9354 44.6836 57.9961C44.5102 58.0084 44.3375 57.9921 44.1768 57.9512C43.5357 57.7877 43.0472 57.2354 43.0039 56.5469L42.9434 55.5791C42.8588 54.2232 42.2322 52.9584 41.2041 52.0703C40.5177 52.5881 39.7584 53.0999 38.9092 53.5908L37.9854 54.125C36.2439 55.1315 34.2142 55.4139 32.2695 54.9189C30.3268 54.4242 28.7013 53.2118 27.6943 51.5059L27.1592 50.5996C26.6529 49.7429 26.2403 48.9141 25.8994 48.1172C24.1889 48.3757 22.6668 49.3445 21.709 50.7852L21.5156 51.0771C21.1314 51.6572 20.4237 51.9053 19.7822 51.7422C19.6232 51.7017 19.4661 51.6333 19.3213 51.54C18.5906 51.0714 18.387 50.1056 18.8682 49.3838L19.3857 48.6045C20.6358 46.7237 22.6224 45.4588 24.8555 45.1221L24.9004 45.1152C24.333 42.74 24.4135 40.8628 24.5625 39.7656L24.0859 39.7617C22.4971 39.7494 20.9675 40.368 19.834 41.4814L18.7012 42.5947C18.2851 43.0021 17.7009 43.1356 17.1758 43.002C16.9126 42.9349 16.663 42.8035 16.458 42.5996C15.8421 41.9908 15.8487 41.0039 16.4697 40.3936L18.5537 38.3486C19.6865 37.2371 21.2138 36.6191 22.8008 36.6309L25.4229 36.6504C25.897 35.3313 26.4344 34.2061 26.9941 33.2363L25.751 31.5723C25.2026 30.8384 24.4191 30.3153 23.5312 30.0898L22.3818 29.7979C21.5367 29.5827 21.0325 28.7317 21.2578 27.8965C21.483 27.0627 22.3521 26.5595 23.1973 26.7744L25.4307 27.3438C26.3172 27.5695 27.0997 28.0925 27.6475 28.8252L28.9238 30.5312C29.7853 29.5645 30.5978 28.915 31.2188 28.5C31.2572 28.4727 31.3031 28.4542 31.3438 28.4307C31.8728 27.2173 32.8548 26.1213 34.2725 25.126L32.9717 22.1953C32.6217 21.4072 32.9912 20.4861 33.793 20.1348Z" fill="#000000"/>
        </g>
        <path d="M32.793 18.1348C33.5942 17.7854 34.5298 18.1378 34.8779 18.9268L36.1221 21.7324C38.0705 21.3599 41.1476 21.6544 42.999 23.5303L46.4648 21.6953C47.2364 21.2867 48.1979 21.5689 48.6064 22.3281C49.0167 23.0864 48.7216 24.033 47.9473 24.4414L44.6738 26.1748C45.3658 27.6826 45.6367 29.0652 45.4824 30.3027C45.4999 30.3343 45.525 30.3644 45.542 30.3975C45.86 31.0257 46.216 31.9387 46.4766 33.1123L47.7539 32.4043C48.6453 31.9099 49.6918 31.7741 50.6797 32.0254L52.8232 32.5713C53.6681 32.7866 54.1712 33.638 53.9463 34.4717C53.7204 35.3066 52.8518 35.8076 52.0068 35.5928L51.1006 35.3613C50.1129 35.1098 49.0663 35.2454 48.1748 35.7393L46.8262 36.4863C46.8272 37.6456 46.7123 38.9543 46.4375 40.4082L48.1103 41.3057C49.545 42.0761 50.6051 43.3975 51.0469 44.9648L51.8008 47.6416C52.0335 48.4691 51.539 49.3307 50.6963 49.5684C50.4151 49.6468 50.1304 49.6461 49.8672 49.5791C49.3421 49.4454 48.9027 49.0493 48.7461 48.4961L48.291 46.8828C47.8852 45.4418 46.9107 44.2278 45.5918 43.5195C45.1409 44.5706 44.2488 46.2094 42.583 47.96C44.0618 49.2351 44.9634 51.053 45.084 53.002L45.167 54.333C45.2214 55.1908 44.5568 55.9354 43.6836 55.9961C43.5102 56.0084 43.3375 55.9921 43.1768 55.9512C42.5357 55.7877 42.0472 55.2354 42.0039 54.5469L41.9434 53.5791C41.8588 52.2232 41.2322 50.9584 40.2041 50.0703C39.5177 50.5881 38.7584 51.0999 37.9092 51.5908L36.9854 52.125C35.2439 53.1315 33.2142 53.4139 31.2695 52.9189C29.3268 52.4242 27.7013 51.2118 26.6943 49.5059L26.1592 48.5996C25.6529 47.7429 25.2403 46.9141 24.8994 46.1172C23.1889 46.3757 21.6668 47.3445 20.709 48.7852L20.5156 49.0771C20.1314 49.6572 19.4237 49.9053 18.7822 49.7422C18.6232 49.7017 18.4661 49.6333 18.3213 49.54C17.5906 49.0714 17.387 48.1056 17.8682 47.3838L18.3857 46.6045C19.6358 44.7237 21.6224 43.4588 23.8555 43.1221L23.9004 43.1152C23.333 40.74 23.4135 38.8628 23.5625 37.7656L23.0859 37.7617C21.4971 37.7494 19.9675 38.368 18.834 39.4814L17.7012 40.5947C17.2851 41.0021 16.7009 41.1356 16.1758 41.002C15.9126 40.9349 15.663 40.8035 15.458 40.5996C14.8421 39.9908 14.8487 39.0039 15.4697 38.3936L17.5537 36.3486C18.6865 35.2371 20.2138 34.6191 21.8008 34.6309L24.4229 34.6504C24.897 33.3313 25.4344 32.2061 25.9941 31.2363L24.751 29.5723C24.2026 28.8384 23.4191 28.3153 22.5312 28.0898L21.3818 27.7979C20.5367 27.5827 20.0325 26.7317 20.2578 25.8965C20.483 25.0627 21.3521 24.5595 22.1973 24.7744L24.4307 25.3438C25.3172 25.5695 26.0997 26.0925 26.6475 26.8252L27.9238 28.5312C28.7853 27.5645 29.5978 26.915 30.2188 26.5C30.2572 26.4727 30.3031 26.4542 30.3438 26.4307C30.8728 25.2173 31.8548 24.1213 33.2725 23.126L31.9717 20.1953C31.6217 19.4072 31.9912 18.4861 32.793 18.1348Z" fill="url(#j)" opacity="0.72"/>
    </g>
    <path d="M18 82H38V102H18z" fill="#dcdcdc"/>
    <g filter="url(#k)" opacity="0.2">
        <path d="M47.1538 52C63.0847 52 76 63.6494 76 79.4286C76 95.2077 63.0847 108 47.1538 108C43.0157 108 39.0818 107.135 35.5241 105.58C24.5453 104.372 16 94.9743 16 83.5569C16 79.2822 17.1984 75.3985 19.2734 72.154C22.5494 60.1978 33.7901 52 47.1538 52Z" fill="#000000"/>
    </g>
    <mask id="l" height="58" width="58" x="15" y="47" style="mask-type:alpha" maskUnits="userSpaceOnUse">
        <path d="M15 76C15 92.0158 27.9842 105 44 105C60.0158 105 73 92.0158 73 76C73 59.9842 60.0158 47 44 47C27.9842 47 15 59.9842 15 76Z" fill="#000000"/>
    </mask>
    <g mask="url(#l)">
        <path d="M15 76C15 92.0158 27.9842 105 44 105C60.0158 105 73 92.0158 73 76C73 59.9842 60.0158 47 44 47C27.9842 47 15 59.9842 15 76Z" fill="#192628"/>
        <g filter="url(#m)" opacity="0.2">
            <path d="M38.8082 56.0355C40.6211 55.7699 42.3189 57.0222 42.5888 58.8393L43.5628 65.3014C47.7077 65.6364 53.7692 67.9778 56.4811 72.8751L64.4977 71.0656C66.2828 70.662 68.0717 71.7856 68.48 73.5755C68.8923 75.3641 67.7747 77.141 65.9843 77.5423L58.4096 79.2515C58.9796 82.7387 57.7293 85.7299 56.7367 88.1843C56.7546 88.2593 56.7873 88.3366 56.8035 88.4145C57.1009 89.8842 57.3195 90.959 57.2007 93.5166L59.5409 92.9387C62.0205 92.327 64.6385 92.6997 66.8532 93.9794L70.3326 95.9898C71.9229 96.909 72.4719 98.941 71.558 100.526C70.6422 102.114 68.6102 102.652 67.0196 101.733L65.8671 101.067C63.6535 99.7883 61.0367 99.4159 58.5584 100.026L56.0506 100.643C55.4148 103.025 54.4649 106.648 53.1091 109.478L55.3316 111.623C58.2363 114.428 59.8945 118.297 59.9308 122.352L59.9757 127.358C59.9913 129.189 58.5169 130.681 56.6821 130.693C56.0699 130.696 55.4932 130.533 54.9976 130.247C54.0096 129.675 53.3377 128.613 53.3253 127.389L53.2949 123.805C53.2676 120.625 51.9667 117.59 49.688 115.39C48.1981 117.294 45.4914 120.152 41.16 122.806C43.4496 126.263 44.2723 130.499 43.4444 134.571L42.8785 137.354C42.5165 139.147 40.7616 140.301 38.9619 139.931C38.6046 139.858 38.2672 139.727 37.9648 139.553C36.758 138.855 36.0736 137.445 36.3653 136.006L36.7758 133.982C37.3513 131.15 36.7797 128.204 35.1885 125.8C33.5157 126.476 31.6974 127.095 29.7101 127.624L27.5483 128.202C23.4734 129.285 20.2542 128.717 16.5945 126.603C12.9378 124.49 11.3557 121.083 10.258 117.011L9.67507 114.848C9.12237 112.802 8.7432 110.867 8.49218 109.037C4.8943 108.603 1.28259 109.732 -1.4397 112.143L-2.00078 112.641C-3.09684 113.615 -4.66271 113.726 -5.87006 113.029C-6.16983 112.855 -6.45047 112.627 -6.69225 112.353C-7.91162 110.978 -7.79322 108.88 -6.42385 107.67L-5.009 106.417C-1.40909 103.228 3.36715 101.734 8.12541 102.311C8.28475 97.1116 9.47937 93.3012 10.3843 91.1325C6.56448 90.0345 2.46734 90.5208 -0.995203 92.483L-3.02457 93.6326C-4.09015 94.2345 -5.34551 94.1817 -6.33398 93.6106C-6.8291 93.3243 -7.25941 92.9117 -7.5618 92.3777C-8.47216 90.7799 -7.91795 88.7578 -6.32669 87.8549L-1.87326 85.334C1.59469 83.3709 5.69694 82.8851 9.52205 83.9836L13.8395 85.2226C15.524 82.7814 18.2286 79.7751 19.8941 78.0997L18.4828 74.4646C17.6559 72.3347 16.1317 70.5534 14.163 69.4167L12.4579 68.4323C10.8672 67.5132 10.3168 65.4829 11.2325 63.8949C12.1467 62.31 14.179 61.7692 15.7697 62.6877L19.5127 64.8499C21.4802 65.9864 23.0032 67.7667 23.8301 69.8954L25.2838 73.6357C27.5585 72.1365 28.5587 72.2589 30.0428 71.7573C30.1355 71.7231 30.238 71.7127 30.3331 71.6875C32.0705 69.4946 33.6198 67.7985 37.0339 66.5551L36.0174 59.8016C35.7434 57.9859 36.9941 56.3048 38.8082 56.0355Z" fill="#000000"/>
        </g>
        <path d="M37.8082 54.0355C39.6211 53.7699 41.3189 55.0222 41.5888 56.8393L42.5628 63.3014C46.7077 63.6364 52.7692 65.9778 55.4811 70.8751L63.4977 69.0656C65.2828 68.662 67.0717 69.7856 67.48 71.5755C67.8923 73.3641 66.7747 75.141 64.9843 75.5423L57.4096 77.2515C57.9796 80.7387 56.7293 83.7299 55.7367 86.1843C55.7546 86.2593 55.7873 86.3366 55.8035 86.4145C56.1009 87.8842 56.3195 88.959 56.2007 91.5166L58.5409 90.9387C61.0205 90.327 63.6385 90.6997 65.8532 91.9794L69.3326 93.9898C70.9229 94.909 71.4719 96.941 70.558 98.5259C69.6422 100.114 67.6102 100.652 66.0196 99.7331L64.8671 99.0671C62.6535 97.7883 60.0367 97.4159 57.5584 98.0264L55.0506 98.6435C54.4148 101.025 53.4649 104.648 52.1091 107.478L54.3316 109.623C57.2363 112.428 58.8945 116.297 58.9308 120.352L58.9757 125.358C58.9913 127.189 57.5169 128.681 55.6821 128.693C55.0699 128.696 54.4932 128.533 53.9976 128.247C53.0096 127.675 52.3377 126.613 52.3253 125.389L52.2949 121.805C52.2676 118.625 50.9667 115.59 48.688 113.39C47.1981 115.294 44.4914 118.152 40.16 120.806C42.4496 124.263 43.2723 128.499 42.4444 132.571L41.8785 135.354C41.5165 137.147 39.7616 138.301 37.9619 137.931C37.6046 137.858 37.2672 137.727 36.9648 137.553C35.758 136.855 35.0736 135.445 35.3653 134.006L35.7758 131.982C36.3513 129.15 35.7797 126.204 34.1885 123.8C32.5157 124.476 30.6974 125.095 28.7101 125.624L26.5483 126.202C22.4734 127.285 19.2542 126.717 15.5945 124.603C11.9378 122.49 10.3557 119.083 9.25801 115.011L8.67507 112.848C8.12237 110.802 7.7432 108.867 7.49218 107.037C3.8943 106.603 0.282593 107.732 -2.4397 110.143L-3.00078 110.641C-4.09684 111.615 -5.66271 111.726 -6.87006 111.029C-7.16983 110.855 -7.45047 110.627 -7.69225 110.353C-8.91162 108.978 -8.79322 106.88 -7.42385 105.67L-6.009 104.417C-2.40909 101.228 2.36715 99.7342 7.12541 100.311C7.28475 95.1116 8.47937 91.3012 9.38431 89.1325C5.56448 88.0345 1.46734 88.5208 -1.9952 90.483L-4.02457 91.6326C-5.09015 92.2345 -6.34551 92.1817 -7.33398 91.6106C-7.8291 91.3243 -8.25941 90.9117 -8.5618 90.3777C-9.47216 88.7799 -8.91795 86.7578 -7.32669 85.8549L-2.87326 83.334C0.594691 81.3709 4.69694 80.8851 8.52205 81.9836L12.8395 83.2226C14.524 80.7814 17.2286 77.7751 18.8941 76.0997L17.4828 72.4646C16.6559 70.3347 15.1317 68.5534 13.163 67.4167L11.4579 66.4323C9.86718 65.5132 9.31678 63.4829 10.2325 61.8949C11.1467 60.31 13.179 59.7692 14.7697 60.6877L18.5127 62.8499C20.4802 63.9864 22.0032 65.7667 22.8301 67.8954L24.2838 71.6357C26.5585 70.1365 27.5587 70.2589 29.0428 69.7573C29.1355 69.7231 29.238 69.7127 29.3331 69.6875C31.0705 67.4946 32.6198 65.7985 36.0339 64.5551L35.0174 57.8016C34.7434 55.9859 35.9941 54.3048 37.8082 54.0355Z" fill="url(#n)" opacity="0.72"/>
        <path d="M45.4488 72.4578C44.8355 72.0614 44.0156 72.0661 43.0772 72.5893L27.8145 81.7374C26.5263 82.4883 26.2985 84.4928 27.5523 85.2168L43.31 94.3144C44.4843 94.9924 46.3667 94.282 46.3419 92.4342L46.5162 74.6716C46.4713 73.6473 46.062 72.8543 45.4488 72.4578ZM44.1385 77.7526L40.7846 83.5617C40.4402 84.1798 39.5477 84.3967 38.9161 84.0321C38.2845 83.6674 38.0261 82.786 38.3891 82.1787L41.7431 76.3696L44.1385 77.7526ZM38.2453 85.1939C38.905 85.5748 39.1417 86.4073 38.7722 87.0472C38.4028 87.6872 37.5634 87.8984 36.9037 87.5176C36.244 87.1367 36.0073 86.3041 36.3768 85.6642C36.7462 85.0243 37.5856 84.813 38.2453 85.1939Z" fill="#000000" opacity="0.35"/>
    </g>
    <path d="M15 76.4286C15 92.2077 27.9842 105 44 105C60.0158 105 73 92.2077 73 76.4286C73 60.6494 60.0158 49 44 49C27.9842 49 15 60.6494 15 76.4286Z" stroke="url(#o)" stroke-linejoin="round" stroke-width="3"/>
    <circle cx="44" cy="77" r="29" fill="url(#p)"/>
    <path d="M15 76C15 92.0158 27.9842 105 44 105C60.0158 105 73 92.0158 73 76C73 59.9842 60.0158 47 44 47C27.9842 47 15 59.9842 15 76Z" stroke="#868e90" stroke-linejoin="round" stroke-width="3"/>
    <defs>
        <linearGradient id="a" x1="12" y1="-5" x2="116" y2="-5" gradientUnits="userSpaceOnUse">
            <stop stop-color="#384446"/>
            <stop stop-color="#9a9996" offset="0.0357143"/>
            <stop stop-color="#5c6364" offset="0.0713653"/>
            <stop stop-color="#5c6364" offset="0.928571"/>
            <stop stop-color="#9a9996" offset="0.964286"/>
            <stop stop-color="#384446" offset="1"/>
        </linearGradient>
        <linearGradient id="c" x1="64" y1="18" x2="64" y2="102" gradientUnits="userSpaceOnUse">
            <stop stop-color="#384446"/>
            <stop stop-color="#384446" stop-opacity="0.5" offset="1"/>
        </linearGradient>
        <linearGradient id="f" x1="75" y1="66.0002" x2="99.6253" y2="102.519" gradientUnits="userSpaceOnUse">
            <stop stop-color="#57e389"/>
            <stop stop-color="#57e389" stop-opacity="0.45" offset="0.548369"/>
            <stop stop-color="#4b4b4b" stop-opacity="0.5" offset="1"/>
        </linearGradient>
        <linearGradient id="h" x1="69.0005" y1="52.9998" x2="86.1375" y2="10.5884" gradientUnits="userSpaceOnUse">
            <stop stop-color="#57e389"/>
            <stop stop-color="#57e389" stop-opacity="0.5" offset="0.548369"/>
            <stop stop-color="#4b4b4b" stop-opacity="0.45" offset="0.896473"/>
        </linearGradient>
        <linearGradient id="j" x1="53.9999" y1="56.0001" x2="31.2935" y2="13.553" gradientUnits="userSpaceOnUse">
            <stop stop-color="#57e389"/>
            <stop stop-color="#57e389" stop-opacity="0.5" offset="0.548369"/>
            <stop stop-color="#4b4b4b" stop-opacity="0.45" offset="1"/>
        </linearGradient>
        <linearGradient id="n" x1="72.0389" y1="54" x2="-11.9386" y2="136.056" gradientUnits="userSpaceOnUse">
            <stop stop-color="#ff3c3c"/>
            <stop stop-color="#ff2828" stop-opacity="0.92" offset="0.445091"/>
            <stop stop-color="#4b4b4b" stop-opacity="0.48" offset="0.8"/>
        </linearGradient>
        <linearGradient id="o" x1="44" y1="48.4286" x2="44" y2="105.571" gradientUnits="userSpaceOnUse">
            <stop stop-opacity="0.5" offset="0.300718"/>
            <stop stop-color="#6b7273" offset="1"/>
        </linearGradient>
        <filter id="e" height="45" width="42.9998" x="72" y="66.0002" filterUnits="userSpaceOnUse">
            <feFlood flood-opacity="0" result="BackgroundImageFix"/>
            <feBlend in="SourceGraphic" in2="BackgroundImageFix" result="shape"/>
            <feGaussianBlur stdDeviation="1" result="effect1_foregroundBlur_36_2"/>
        </filter>
        <filter id="g" height="43" width="44.9993" x="68.0005" y="13.9998" filterUnits="userSpaceOnUse">
            <feFlood flood-opacity="0" result="BackgroundImageFix"/>
            <feBlend in="SourceGraphic" in2="BackgroundImageFix" result="shape"/>
            <feGaussianBlur stdDeviation="1" result="effect1_foregroundBlur_36_2"/>
        </filter>
        <filter id="i" height="42.0002" width="42.9999" x="14" y="17.9999" filterUnits="userSpaceOnUse">
            <feFlood flood-opacity="0" result="BackgroundImageFix"/>
            <feBlend in="SourceGraphic" in2="BackgroundImageFix" result="shape"/>
            <feGaussianBlur stdDeviation="1" result="effect1_foregroundBlur_36_2"/>
        </filter>
        <filter id="k" height="60.6154" width="64.6154" x="13.6923" y="49.6923" filterUnits="userSpaceOnUse">
            <feFlood flood-opacity="0" result="BackgroundImageFix"/>
            <feBlend in="SourceGraphic" in2="BackgroundImageFix" result="shape"/>
            <feGaussianBlur stdDeviation="1.15385" result="effect1_foregroundBlur_36_2"/>
        </filter>
        <filter id="m" height="88" width="84" x="-10" y="54" filterUnits="userSpaceOnUse">
            <feFlood flood-opacity="0" result="BackgroundImageFix"/>
            <feBlend in="SourceGraphic" in2="BackgroundImageFix" result="shape"/>
            <feGaussianBlur stdDeviation="1" result="effect1_foregroundBlur_36_2"/>
        </filter>
        <radialGradient id="b" cx="0" cy="0" r="1" gradientTransform="translate(64 61) scale(58 54.19)" gradientUnits="userSpaceOnUse">
            <stop stop-color="#324042"/>
            <stop stop-color="#1a282a" offset="0.45"/>
            <stop offset="1"/>
        </radialGradient>
        <radialGradient id="p" cx="0" cy="0" r="1" gradientTransform="translate(44 48) rotate(90) scale(58)" gradientUnits="userSpaceOnUse">
            <stop stop-color="#d9d9d9" stop-opacity="0.45"/>
            <stop stop-opacity="0" offset="0.7"/>
        </radialGradient>
    </defs>
</svg>
